M48
; DRILL file {KiCad 9.0.2} date 2025-07-03T10:26:08-0400
; FORMAT={-:-/ absolute / metric / decimal}
; #@! TF.CreationDate,2025-07-03T10:26:08-04:00
; #@! TF.GenerationSoftware,Kicad,Pcbnew,9.0.2
; #@! TF.FileFunction,Plated,1,2,PTH
FMAT,2
METRIC
; #@! TA.AperFunction,Plated,PTH,ComponentDrill
T1C0.700
; #@! TA.AperFunction,Plated,PTH,ComponentDrill
T2C0.889
; #@! TA.AperFunction,Plated,PTH,ComponentDrill
T3C1.210
; #@! TA.AperFunction,Plated,PTH,ComponentDrill
T4C1.500
%
G90
G05
T1
X155.16Y-98.0
X160.24Y-98.0
X213.56Y-114.5
X214.96Y-98.2
X218.64Y-114.5
X220.04Y-98.2
T2
X181.08Y-74.38
X181.08Y-76.92
X181.08Y-79.46
X181.08Y-82.0
X181.08Y-84.54
X181.08Y-87.08
X181.08Y-89.62
X196.32Y-74.38
X196.32Y-76.92
X196.32Y-79.46
X196.32Y-82.0
X196.32Y-84.54
X196.32Y-87.08
X196.32Y-89.62
T3
X158.73Y-65.8
X161.27Y-65.8
X188.7Y-96.13
X188.7Y-98.67
X216.03Y-65.9
X218.57Y-65.9
T4
X155.5Y-125.9
X161.85Y-123.36
X174.5Y-125.9
X180.85Y-123.36
X193.6Y-125.86
X199.95Y-123.32
X212.59Y-125.86
X218.94Y-123.32
M30
